<svg width="33" height="33" viewBox="0 0 33 33" fill="none" xmlns="http://www.w3.org/2000/svg">
<path d="M0.875745 13.9414C1.17192 14.0138 1.48483 13.966 1.7457 13.8087C2.00657 13.6514 2.19407 13.3973 2.26698 13.1023C2.56869 11.8914 3.03065 10.7258 3.6407 9.63614C4.55227 7.99108 5.78043 6.54116 7.25493 5.3693C9.48375 3.59481 12.2012 2.53689 15.0472 2.33576L15.2556 0.0366211C11.8155 0.195645 8.51395 1.43454 5.82342 3.57604C3.99311 5.03074 2.49078 6.85307 1.4142 8.92442C0.810588 10.0772 0.347076 11.2976 0.033475 12.5598C-0.0383638 12.8542 0.00996692 13.1651 0.167866 13.4241C0.325764 13.6831 0.580338 13.8691 0.875745 13.9414Z" fill="black"/>
<path d="M21.6501 3.40162C24.6346 4.6502 27.1016 6.87648 28.643 9.71204L29.5054 6.80323C27.8654 4.53212 25.6636 2.72213 23.114 1.54905C22.6403 1.32838 22.1588 1.12428 21.6641 0.94897C19.8842 0.319188 18.009 -0.00178629 16.1202 7.47684e-06C15.8304 7.47684e-06 15.5432 0.0218127 15.2552 0.0366402L15.0459 2.33578C15.4014 2.30961 15.7586 2.2913 16.1202 2.2913C18.0196 2.2885 19.9001 2.66608 21.6501 3.40162Z" fill="black"/>
<path d="M31.3647 19.0525C31.0685 18.9804 30.7558 19.0284 30.4951 19.1859C30.2344 19.3434 30.0471 19.5975 29.9744 19.8925C29.4978 21.8083 28.6276 23.605 27.4186 25.1688C26.2097 26.7327 24.6884 28.0298 22.9508 28.9782C21.162 29.9539 19.1815 30.5301 17.1468 30.6668C16.8071 30.6904 16.4656 30.7087 16.1207 30.7087C12.8994 30.7211 9.77076 29.635 7.25496 27.6307C7.21819 27.601 7.18492 27.5688 7.14814 27.5435C5.13445 25.9009 3.59849 23.7516 2.69953 21.3185H8.01843C8.04645 21.3656 8.07534 21.411 8.10599 21.4572C8.1235 21.4842 8.13926 21.5121 8.15677 21.5383C8.21018 21.6255 8.26446 21.7058 8.32049 21.7878L8.35464 21.8357C8.40017 21.902 8.44219 21.9674 8.49473 22.0329C8.51574 22.0625 8.5385 22.0913 8.56039 22.1201C8.59891 22.1707 8.63656 22.2212 8.67596 22.2718L8.75213 22.3669C8.78978 22.414 8.82743 22.4611 8.86683 22.5073L8.94563 22.6015L9.06645 22.7393C9.09272 22.769 9.11899 22.7987 9.14613 22.8266C9.19078 22.8754 9.23368 22.9242 9.28184 22.9722L9.30985 23.001L9.35188 23.0455C9.42105 23.117 9.49109 23.1868 9.56288 23.2557L9.59528 23.2862C9.65744 23.3455 9.71961 23.4031 9.78265 23.4607L9.86407 23.5322C9.91222 23.5749 9.96038 23.6194 10.0094 23.6586L10.1022 23.7363C10.1495 23.7747 10.1968 23.8139 10.2449 23.8514L10.3412 23.9273C10.3903 23.9648 10.4393 24.0023 10.4892 24.0389L10.5846 24.1096C10.6389 24.1488 10.6941 24.1872 10.7501 24.2256C10.7773 24.2448 10.8044 24.2648 10.8324 24.2831C10.92 24.3398 11.0005 24.3948 11.0863 24.4489C12.593 25.3983 14.3396 25.9013 16.1224 25.8994C16.1881 25.8994 16.2529 25.8932 16.3186 25.8915C18.2342 25.8507 20.0921 25.2305 21.6457 24.1133C23.1993 22.996 24.3751 21.4345 25.017 19.636C25.0303 19.5995 25.0414 19.5622 25.0503 19.5244C25.0503 19.5113 25.0556 19.4982 25.0582 19.4851C25.0608 19.472 25.0687 19.4363 25.0722 19.4119C25.0757 19.3874 25.0722 19.3805 25.0766 19.3639C25.081 19.3473 25.081 19.3203 25.0818 19.2985C25.0827 19.2767 25.0818 19.2645 25.0818 19.247C25.0818 19.2296 25.0818 19.2069 25.0818 19.1868C25.0818 19.1668 25.0818 19.1528 25.0766 19.1354C25.0713 19.1179 25.0766 19.0961 25.0696 19.0769C25.0626 19.0577 25.0626 19.0429 25.0599 19.0264C25.0573 19.0098 25.0521 18.988 25.0477 18.9688C25.0433 18.9496 25.0372 18.9365 25.0319 18.9199C25.0267 18.9034 25.0214 18.8824 25.0153 18.8641C25.0092 18.8458 25.0022 18.8327 24.9952 18.817C24.9882 18.8013 24.9811 18.7804 24.9724 18.7629C24.9636 18.7455 24.9566 18.7333 24.9488 18.7193C24.9409 18.7054 24.9312 18.6836 24.9207 18.6661L24.8936 18.6251C24.8822 18.6077 24.8717 18.5911 24.8594 18.5745C24.8472 18.558 24.8384 18.5493 24.8279 18.5362C24.8174 18.5231 24.8034 18.5039 24.7894 18.4891C24.7754 18.4742 24.7666 18.4655 24.7544 18.4533C24.7421 18.4411 24.7264 18.4237 24.7115 18.4097C24.6966 18.3957 24.6861 18.3888 24.673 18.3774L24.6257 18.339L24.5828 18.3094C24.5653 18.2981 24.5495 18.2858 24.5311 18.2754L24.4856 18.2501L24.4296 18.2204L24.3814 18.2004L24.3271 18.1777L14.3486 14.5589L13.473 14.2414L12.9188 14.0426L11.912 13.678L9.93586 12.961C10.5621 11.8785 11.4634 10.9793 12.549 10.3537C13.6347 9.7281 14.8665 9.39821 16.1207 9.39717C16.3728 9.39867 16.6247 9.41294 16.8754 9.43991C18.0698 9.56228 19.2135 9.98476 20.1992 10.6677C21.185 11.3507 21.9805 12.2718 22.5112 13.3448C22.6066 13.5356 22.7535 13.6962 22.9353 13.8085C23.1172 13.9208 23.3269 13.9804 23.5409 13.9806H31.0889C31.2635 13.9807 31.4358 13.9411 31.5927 13.865C31.7497 13.7889 31.8872 13.6782 31.9949 13.5413C32.1025 13.4044 32.1775 13.2448 32.2141 13.0748C32.2507 12.9048 32.248 12.7286 32.2061 12.5598C31.6896 10.4846 30.7725 8.52933 29.5059 6.80322L28.6462 9.71291C28.9948 10.3473 29.294 11.0075 29.541 11.6876H24.2221C23.382 10.2935 22.1948 9.13919 20.7755 8.33634C19.3562 7.5335 17.7528 7.10936 16.1207 7.10501C15.6109 7.1058 15.1021 7.14722 14.599 7.22886C12.9609 7.49911 11.4229 8.19346 10.139 9.24236C8.85516 10.2913 7.87055 11.6579 7.28385 13.2052C7.28423 13.207 7.28423 13.2087 7.28385 13.2105C7.27685 13.2288 7.27247 13.2462 7.26722 13.2645C7.26196 13.2829 7.25496 13.2994 7.25058 13.3177C7.2462 13.3361 7.2427 13.3561 7.23833 13.3762C7.23395 13.3962 7.23045 13.4119 7.22782 13.4303C7.22519 13.4486 7.22344 13.4695 7.22169 13.4887C7.21994 13.5079 7.22169 13.5253 7.21556 13.5428C7.20943 13.5602 7.21556 13.582 7.21556 13.6012C7.21556 13.6204 7.21556 13.637 7.21556 13.6553C7.21556 13.6736 7.21556 13.6937 7.22081 13.7129C7.22607 13.732 7.22081 13.7486 7.22607 13.7661C7.23132 13.7835 7.23307 13.8036 7.23745 13.8228C7.24183 13.8419 7.24358 13.8568 7.24708 13.8742C7.25058 13.8917 7.25759 13.9108 7.26372 13.9292C7.26984 13.9475 7.27335 13.9632 7.2786 13.9798C7.28385 13.9963 7.29261 14.0146 7.29961 14.0321L7.31975 14.0818C7.32763 14.0984 7.33726 14.1149 7.34514 14.1306C7.35302 14.1463 7.36178 14.1638 7.37141 14.1795C7.38104 14.1952 7.39067 14.21 7.40118 14.2257C7.41168 14.2414 7.42044 14.2571 7.43094 14.2719L7.46509 14.3156C7.47647 14.3295 7.48785 14.3443 7.50011 14.3583C7.51237 14.3722 7.52638 14.3853 7.53864 14.3984C7.55089 14.4115 7.56403 14.4255 7.57803 14.4385C7.59204 14.4516 7.60693 14.463 7.62094 14.4752L7.66296 14.5109C7.67872 14.5231 7.69536 14.5336 7.71199 14.5449C7.72863 14.5563 7.74088 14.5659 7.75664 14.5755L7.81005 14.6051C7.82581 14.6138 7.84157 14.6234 7.85821 14.6313L7.91512 14.6557C7.93 14.6618 7.94489 14.6697 7.96152 14.6758H7.96677L8.35376 14.8275L11.018 15.787L12.4837 16.3181L14.7969 17.1616L22.3764 19.909C22.337 19.9814 22.2967 20.0521 22.2547 20.1218L22.2302 20.1628C22.1934 20.223 22.1567 20.2832 22.1181 20.3416C22.1024 20.3669 22.0849 20.3914 22.0682 20.4167C22.0376 20.4637 22.0061 20.51 21.9737 20.5562L21.9159 20.6373L21.8213 20.7664L21.7592 20.8458C21.7268 20.8885 21.6935 20.933 21.6593 20.9714L21.5972 21.0473C21.5613 21.09 21.5245 21.1345 21.4877 21.1746C21.4685 21.1964 21.4492 21.2191 21.4291 21.2409C21.3844 21.2906 21.3415 21.3394 21.2925 21.3883L21.2548 21.4275C21.1953 21.4895 21.1349 21.5496 21.0727 21.6098L21.0386 21.6412C20.9878 21.6892 20.937 21.7363 20.8854 21.7825L20.8215 21.8384L20.691 21.95L20.6183 22.0093L20.4905 22.1105L20.4143 22.1689L20.2821 22.2657L20.2059 22.3198C20.1587 22.353 20.1105 22.3852 20.0615 22.4166C20.0396 22.4323 20.0168 22.4472 19.9941 22.462C19.9328 22.5012 19.8706 22.5396 19.8085 22.5771L19.7769 22.5972C19.7034 22.6408 19.629 22.6844 19.5537 22.7245L19.5011 22.7524C19.4434 22.783 19.3856 22.8135 19.326 22.8396L19.2472 22.878C19.1965 22.9033 19.1465 22.9277 19.0949 22.9504L19.0073 22.9905L18.8594 23.0542L18.7674 23.0917L18.616 23.1502L18.5284 23.1833L18.3629 23.24L18.2841 23.2662C18.2106 23.2897 18.1362 23.3115 18.0618 23.3324L18.0372 23.3403C17.9541 23.363 17.87 23.3848 17.786 23.4048L17.7124 23.4214C17.6529 23.4354 17.5925 23.4484 17.5373 23.4607L17.4419 23.479L17.2808 23.5078L17.1783 23.5235L17.0199 23.5453L16.9157 23.5575L16.7528 23.574L16.6521 23.5828C16.5935 23.5871 16.5339 23.5897 16.477 23.5932H16.3895C16.3019 23.5932 16.2144 23.5985 16.1268 23.5985C16.0594 23.5985 15.9929 23.5932 15.9254 23.5915C14.8445 23.5651 13.784 23.2925 12.8253 22.7945C11.8666 22.2964 11.0351 21.5863 10.3946 20.7184C10.1442 20.3823 9.92364 20.0251 9.73537 19.6509C9.73537 19.6447 9.72836 19.6386 9.72573 19.6325L9.70735 19.5994C9.70034 19.5863 9.69246 19.5741 9.68458 19.561L9.66882 19.5357L9.65657 19.5165C9.64606 19.5008 9.63468 19.486 9.6233 19.4712L9.60754 19.4502L9.59791 19.4389L9.58302 19.4206L9.54625 19.3796L9.52436 19.3578L9.51123 19.3447C9.49897 19.3325 9.48671 19.3203 9.47358 19.3089L9.44556 19.2845L9.43856 19.2784L9.43243 19.2732C9.41317 19.2584 9.3939 19.2427 9.37377 19.2287L9.35626 19.2174L9.33349 19.2017L9.28884 19.1746L9.26433 19.1607L9.24681 19.1502L9.18027 19.1179H9.17327H9.16451L9.13037 19.104L9.08134 19.0857L9.06383 19.0796L9.03493 19.0708L8.98153 19.0569L8.95789 19.0508H8.94388H8.91849L8.86245 19.0412H8.83881H8.80992H8.76527H1.15157C1.11567 19.0412 1.07978 19.0412 1.04476 19.0464H1.02812C0.996355 19.0492 0.964781 19.0539 0.933561 19.0604L0.907295 19.0656C0.877527 19.0717 0.848634 19.0796 0.819741 19.0883L0.791724 19.097C0.765458 19.1057 0.738316 19.1153 0.712925 19.1258L0.68841 19.1362C0.663895 19.1467 0.640256 19.1581 0.616616 19.1703L0.595603 19.1816C0.568461 19.1964 0.543071 19.2121 0.51768 19.2287L0.498418 19.2418C0.472152 19.2592 0.446761 19.2784 0.422246 19.2985L0.41174 19.3072C0.387224 19.3273 0.363585 19.3491 0.340821 19.3709L0.335568 19.3761C0.312804 19.3988 0.290915 19.4232 0.269902 19.4485L0.262898 19.4502L0.25064 19.4651C0.23488 19.4843 0.220872 19.5052 0.205988 19.5253L0.195481 19.5427C0.179721 19.5662 0.163962 19.5907 0.149953 19.616L0.142073 19.6299C0.128065 19.657 0.114931 19.684 0.103549 19.711C0.103549 19.7198 0.0956696 19.7276 0.0921674 19.7363C0.0807854 19.7634 0.0711545 19.7913 0.0615235 19.8192L0.0536437 19.8462C0.0448883 19.8759 0.0370084 19.9047 0.0308796 19.9334C0.0304619 19.9401 0.0304619 19.9468 0.0308796 19.9535C0.0247508 19.9849 0.0194976 20.0163 0.0159954 20.0486C0.0159954 20.0486 0.0159954 20.0486 0.0159954 20.0556C0.0124933 20.0916 0.0107422 20.1274 0.0107422 20.1628C0.0107422 20.1628 0.0107422 20.1681 0.0107422 20.1707C0.0107422 20.205 0.0124933 20.239 0.0159954 20.2727V20.2928C0.0159954 20.3242 0.0238753 20.3556 0.0300041 20.387C0.0300041 20.3957 0.0300041 20.4044 0.0361328 20.4132L0.0413861 20.4393C0.389549 21.8366 0.9209 23.182 1.62174 24.441C2.68065 26.3618 4.1111 28.0545 5.83046 29.4213C5.93377 29.5033 6.04409 29.574 6.14915 29.6533C9.01577 31.8326 12.5244 33.0081 16.1303 32.9974C16.6066 32.9974 17.0803 32.9776 17.5513 32.9381C18.9597 32.8191 20.3468 32.5201 21.6786 32.0484C21.8222 31.9978 21.9605 31.9333 22.1024 31.874C23.6614 31.2779 25.1204 30.4492 26.4293 29.4161C29.3002 27.139 31.3354 23.9807 32.2184 20.4323C32.2534 20.2859 32.2591 20.134 32.2351 19.9854C32.2111 19.8367 32.158 19.6943 32.0787 19.5661C31.9994 19.438 31.8956 19.3266 31.773 19.2385C31.6505 19.1504 31.5118 19.0872 31.3647 19.0525Z" fill="black"/>
</svg>